<svg xmlns="http://www.w3.org/2000/svg" width="900" height="820" viewBox="0 0 900 820">
<defs>
  <style>
    text { font-family: "Helvetica Neue", Arial, sans-serif; }
    .axis-line { stroke: #2a2a26; stroke-width: 1; }
    .grid-line { stroke: #1e1d1a; stroke-width: 0.5; stroke-dasharray: 3,3; }
  </style>
</defs>
<rect width="900" height="820" fill="#080806"/>
<text x="240" y="30" fill="#f0ede6" font-size="14" letter-spacing="1" font-weight="400">BPE VMML — Voynich vs. 45 Natural Language Corpora</text>
<text x="240" y="46" fill="#5a5852" font-size="10" letter-spacing="0.5">Mean Morpheme Length via Byte-Pair Encoding · max_merges=200 · n≥10,000 tokens · Source: RESON Research Initiative 2026</text>
<line x1="240.0" y1="50" x2="240.0" y2="760" class="grid-line"/>
<text x="240.0" y="776" fill="#5a5852" font-size="10" text-anchor="middle">4.4</text>
<line x1="298.8" y1="50" x2="298.8" y2="760" class="grid-line"/>
<text x="298.8" y="776" fill="#5a5852" font-size="10" text-anchor="middle">4.6</text>
<line x1="357.6" y1="50" x2="357.6" y2="760" class="grid-line"/>
<text x="357.6" y="776" fill="#5a5852" font-size="10" text-anchor="middle">4.8</text>
<line x1="416.5" y1="50" x2="416.5" y2="760" class="grid-line"/>
<text x="416.5" y="776" fill="#5a5852" font-size="10" text-anchor="middle">5.0</text>
<line x1="475.3" y1="50" x2="475.3" y2="760" class="grid-line"/>
<text x="475.3" y="776" fill="#5a5852" font-size="10" text-anchor="middle">5.2</text>
<line x1="534.1" y1="50" x2="534.1" y2="760" class="grid-line"/>
<text x="534.1" y="776" fill="#5a5852" font-size="10" text-anchor="middle">5.4</text>
<line x1="592.9" y1="50" x2="592.9" y2="760" class="grid-line"/>
<text x="592.9" y="776" fill="#5a5852" font-size="10" text-anchor="middle">5.6</text>
<line x1="651.8" y1="50" x2="651.8" y2="760" class="grid-line"/>
<text x="651.8" y="776" fill="#5a5852" font-size="10" text-anchor="middle">5.8</text>
<line x1="710.6" y1="50" x2="710.6" y2="760" class="grid-line"/>
<text x="710.6" y="776" fill="#5a5852" font-size="10" text-anchor="middle">6.0</text>
<text x="490" y="812" fill="#7a7670" font-size="11" text-anchor="middle" letter-spacing="1">BPE VMML (higher = longer morpheme subunits)</text>
<line x1="240" y1="760" x2="740" y2="760" class="axis-line"/>
<rect x="240" y="52.4" width="32.9" height="12.2" fill="#8a7a5a" opacity="0.72"/>
<text x="234" y="62.5" fill="#8e8a84" font-size="9.5" text-anchor="end" font-weight="400">Turkish (agglutinative)</text>
<text x="276.9" y="62.5" fill="#5a5852" font-size="9" font-weight="400">4.512</text>
<rect x="240" y="69.3" width="81.5" height="12.2" fill="#8a7a5a" opacity="0.72"/>
<text x="234" y="79.4" fill="#8e8a84" font-size="9.5" text-anchor="end" font-weight="400">Hungarian (agglutinative)</text>
<text x="325.5" y="79.4" fill="#5a5852" font-size="9" font-weight="400">4.677</text>
<rect x="240" y="86.2" width="115.3" height="12.2" fill="#6a7a9a" opacity="0.72"/>
<text x="234" y="96.3" fill="#8e8a84" font-size="9.5" text-anchor="end" font-weight="400">Latin: Ovid Fasti</text>
<text x="359.3" y="96.3" fill="#5a5852" font-size="9" font-weight="400">4.792</text>
<rect x="240" y="103.1" width="136.8" height="12.2" fill="#6a7a9a" opacity="0.72"/>
<text x="234" y="113.2" fill="#8e8a84" font-size="9.5" text-anchor="end" font-weight="400">Latin: Cicero Academica</text>
<text x="380.8" y="113.2" fill="#5a5852" font-size="9" font-weight="400">4.865</text>
<rect x="240" y="120.0" width="154.7" height="12.2" fill="#6a7a9a" opacity="0.72"/>
<text x="234" y="130.1" fill="#8e8a84" font-size="9.5" text-anchor="end" font-weight="400">Czech: Čapek RUR</text>
<text x="398.7" y="130.1" fill="#5a5852" font-size="9" font-weight="400">4.926</text>
<rect x="240" y="136.9" width="177.4" height="12.2" fill="#8a7a5a" opacity="0.72"/>
<text x="234" y="147.0" fill="#8e8a84" font-size="9.5" text-anchor="end" font-weight="400">Esperanto (constructed)</text>
<text x="421.4" y="147.0" fill="#5a5852" font-size="9" font-weight="400">5.003</text>
<rect x="240" y="153.8" width="181.2" height="12.2" fill="#8a7a5a" opacity="0.72"/>
<text x="234" y="163.9" fill="#8e8a84" font-size="9.5" text-anchor="end" font-weight="400">Finnish: Kalevala</text>
<text x="425.2" y="163.9" fill="#5a5852" font-size="9" font-weight="400">5.016</text>
<rect x="240" y="170.7" width="188.5" height="12.2" fill="#6a7a9a" opacity="0.72"/>
<text x="234" y="180.8" fill="#8e8a84" font-size="9.5" text-anchor="end" font-weight="400">Welsh: Gododdin</text>
<text x="432.5" y="180.8" fill="#5a5852" font-size="9" font-weight="400">5.041</text>
<rect x="240" y="187.6" width="207.4" height="12.2" fill="#6a7a9a" opacity="0.72"/>
<text x="234" y="197.7" fill="#8e8a84" font-size="9.5" text-anchor="end" font-weight="400">Italian: Divine Comedy</text>
<text x="451.4" y="197.7" fill="#5a5852" font-size="9" font-weight="400">5.105</text>
<rect x="240" y="204.5" width="209.7" height="12.2" fill="#6a7a9a" opacity="0.72"/>
<text x="234" y="214.6" fill="#8e8a84" font-size="9.5" text-anchor="end" font-weight="400">Portuguese: Os Lusíadas</text>
<text x="453.7" y="214.6" fill="#5a5852" font-size="9" font-weight="400">5.113</text>
<rect x="240" y="221.4" width="226.8" height="12.2" fill="#8a7a5a" opacity="0.72"/>
<text x="234" y="231.5" fill="#8e8a84" font-size="9.5" text-anchor="end" font-weight="400">Finnish: prose</text>
<text x="470.8" y="231.5" fill="#5a5852" font-size="9" font-weight="400">5.171</text>
<rect x="240" y="238.3" width="235.6" height="12.2" fill="#8a7a5a" opacity="0.72"/>
<text x="234" y="248.4" fill="#8e8a84" font-size="9.5" text-anchor="end" font-weight="400">Swahili (Bantu agglutinative)</text>
<text x="479.6" y="248.4" fill="#5a5852" font-size="9" font-weight="400">5.201</text>
<rect x="240" y="255.2" width="238.8" height="12.2" fill="#6a7a9a" opacity="0.72"/>
<text x="234" y="265.3" fill="#8e8a84" font-size="9.5" text-anchor="end" font-weight="400">Latin: Aeneid</text>
<text x="482.8" y="265.3" fill="#5a5852" font-size="9" font-weight="400">5.212</text>
<rect x="240" y="272.1" width="248.2" height="12.2" fill="#6a7a9a" opacity="0.72"/>
<text x="234" y="282.2" fill="#8e8a84" font-size="9.5" text-anchor="end" font-weight="400">Swedish: multi</text>
<text x="492.2" y="282.2" fill="#5a5852" font-size="9" font-weight="400">5.244</text>
<rect x="240" y="289.0" width="248.5" height="12.2" fill="#6a7a9a" opacity="0.72"/>
<text x="234" y="299.1" fill="#8e8a84" font-size="9.5" text-anchor="end" font-weight="400">Latin: Ovid Metamorphoses</text>
<text x="492.5" y="299.1" fill="#5a5852" font-size="9" font-weight="400">5.245</text>
<rect x="240" y="305.9" width="258.5" height="12.2" fill="#7a6a8a" opacity="0.72"/>
<text x="234" y="316.0" fill="#8e8a84" font-size="9.5" text-anchor="end" font-weight="400">Chinese: Classical</text>
<text x="502.5" y="316.0" fill="#5a5852" font-size="9" font-weight="400">5.279</text>
<rect x="240" y="322.8" width="263.8" height="12.2" fill="#6a7a9a" opacity="0.72"/>
<text x="234" y="332.9" fill="#8e8a84" font-size="9.5" text-anchor="end" font-weight="400">Dutch: Max Havelaar</text>
<text x="507.8" y="332.9" fill="#5a5852" font-size="9" font-weight="400">5.297</text>
<rect x="240" y="339.7" width="264.7" height="12.2" fill="#6a7a9a" opacity="0.72"/>
<text x="234" y="349.8" fill="#8e8a84" font-size="9.5" text-anchor="end" font-weight="400">Romanian: Eminescu</text>
<text x="508.7" y="349.8" fill="#5a5852" font-size="9" font-weight="400">5.300</text>
<rect x="240" y="356.7" width="266.2" height="12.2" fill="#6a7a9a" opacity="0.72"/>
<text x="234" y="366.7" fill="#8e8a84" font-size="9.5" text-anchor="end" font-weight="400">Polish: multi</text>
<text x="510.2" y="366.7" fill="#5a5852" font-size="9" font-weight="400">5.305</text>
<rect x="240" y="373.6" width="267.1" height="12.2" fill="#6a7a9a" opacity="0.72"/>
<text x="234" y="383.6" fill="#8e8a84" font-size="9.5" text-anchor="end" font-weight="400">French: Monte Cristo</text>
<text x="511.1" y="383.6" fill="#5a5852" font-size="9" font-weight="400">5.308</text>
<rect x="240" y="390.5" width="268.8" height="12.2" fill="#5a8a6a" opacity="0.72"/>
<text x="234" y="400.5" fill="#8e8a84" font-size="9.5" text-anchor="end" font-weight="400">English: Tolstoy (transl)</text>
<text x="512.8" y="400.5" fill="#5a5852" font-size="9" font-weight="400">5.314</text>
<rect x="240" y="407.4" width="280.3" height="12.2" fill="#6a7a9a" opacity="0.72"/>
<text x="234" y="417.5" fill="#8e8a84" font-size="9.5" text-anchor="end" font-weight="400">Greek: Iliad</text>
<text x="524.3" y="417.5" fill="#5a5852" font-size="9" font-weight="400">5.353</text>
<rect x="240" y="424.3" width="280.6" height="12.2" fill="#6a7a9a" opacity="0.72"/>
<text x="234" y="434.4" fill="#8e8a84" font-size="9.5" text-anchor="end" font-weight="400">Latin: Vulgate Bible</text>
<text x="524.6" y="434.4" fill="#5a5852" font-size="9" font-weight="400">5.354</text>
<rect x="240" y="441.2" width="283.2" height="12.2" fill="#6a7a9a" opacity="0.72"/>
<text x="234" y="451.3" fill="#8e8a84" font-size="9.5" text-anchor="end" font-weight="400">Irish: Niamh</text>
<text x="527.2" y="451.3" fill="#5a5852" font-size="9" font-weight="400">5.363</text>
<rect x="240" y="458.1" width="284.4" height="12.2" fill="#5a8a6a" opacity="0.72"/>
<text x="234" y="468.2" fill="#8e8a84" font-size="9.5" text-anchor="end" font-weight="400">English: Dickens</text>
<text x="528.4" y="468.2" fill="#5a5852" font-size="9" font-weight="400">5.367</text>
<rect x="240" y="475.0" width="284.4" height="12.2" fill="#8a7a5a" opacity="0.72"/>
<text x="234" y="485.1" fill="#8e8a84" font-size="9.5" text-anchor="end" font-weight="400">Turkish literary</text>
<text x="528.4" y="485.1" fill="#5a5852" font-size="9" font-weight="400">5.367</text>
<rect x="240" y="491.9" width="288.8" height="12.2" fill="#6a7a9a" opacity="0.72"/>
<text x="234" y="502.0" fill="#8e8a84" font-size="9.5" text-anchor="end" font-weight="400">Russian: War & Peace</text>
<text x="532.8" y="502.0" fill="#5a5852" font-size="9" font-weight="400">5.382</text>
<rect x="240" y="508.8" width="290.0" height="12.2" fill="#8a7a5a" opacity="0.72"/>
<text x="234" y="518.9" fill="#8e8a84" font-size="9.5" text-anchor="end" font-weight="400">Korean: Hangul</text>
<text x="534.0" y="518.9" fill="#5a5852" font-size="9" font-weight="400">5.386</text>
<rect x="240" y="525.7" width="290.3" height="12.2" fill="#6a7a9a" opacity="0.72"/>
<text x="234" y="535.8" fill="#8e8a84" font-size="9.5" text-anchor="end" font-weight="400">Latin: Isidore Etymologiae</text>
<text x="534.3" y="535.8" fill="#5a5852" font-size="9" font-weight="400">5.387</text>
<rect x="240" y="542.6" width="291.8" height="12.2" fill="#6a7a9a" opacity="0.72"/>
<text x="234" y="552.7" fill="#8e8a84" font-size="9.5" text-anchor="end" font-weight="400">Greek: prose</text>
<text x="535.8" y="552.7" fill="#5a5852" font-size="9" font-weight="400">5.392</text>
<rect x="240" y="559.5" width="294.1" height="12.2" fill="#8a7a5a" opacity="0.72"/>
<text x="234" y="569.6" fill="#8e8a84" font-size="9.5" text-anchor="end" font-weight="400">Japanese: native</text>
<text x="538.1" y="569.6" fill="#5a5852" font-size="9" font-weight="400">5.400</text>
<rect x="240" y="576.4" width="296.8" height="12.2" fill="#6a7a9a" opacity="0.72"/>
<text x="234" y="586.5" fill="#8e8a84" font-size="9.5" text-anchor="end" font-weight="400">Spanish: Don Quixote</text>
<text x="540.8" y="586.5" fill="#5a5852" font-size="9" font-weight="400">5.409</text>
<rect x="240" y="593.3" width="310.3" height="12.2" fill="#6a7a9a" opacity="0.72"/>
<text x="234" y="603.4" fill="#8e8a84" font-size="9.5" text-anchor="end" font-weight="400">Greek: Odyssey</text>
<text x="554.3" y="603.4" fill="#5a5852" font-size="9" font-weight="400">5.455</text>
<rect x="240" y="610.2" width="316.5" height="12.2" fill="#5a8a6a" opacity="0.72"/>
<text x="234" y="620.3" fill="#8e8a84" font-size="9.5" text-anchor="end" font-weight="400">English: Darwin</text>
<text x="560.5" y="620.3" fill="#5a5852" font-size="9" font-weight="400">5.476</text>
<rect x="240" y="627.1" width="318.8" height="12.2" fill="#5a8a6a" opacity="0.72"/>
<text x="234" y="637.2" fill="#8e8a84" font-size="9.5" text-anchor="end" font-weight="400">English: Plato (transl)</text>
<text x="562.8" y="637.2" fill="#5a5852" font-size="9" font-weight="400">5.484</text>
<rect x="240" y="644.0" width="318.8" height="12.2" fill="#6a7a9a" opacity="0.72"/>
<text x="234" y="654.1" fill="#8e8a84" font-size="9.5" text-anchor="end" font-weight="400">German: Reineke</text>
<text x="562.8" y="654.1" fill="#5a5852" font-size="9" font-weight="400">5.484</text>
<rect x="240" y="660.9" width="332.6" height="12.2" fill="#6a7a9a" opacity="0.72"/>
<text x="234" y="671.0" fill="#8e8a84" font-size="9.5" text-anchor="end" font-weight="400">German: Faust</text>
<text x="576.6" y="671.0" fill="#5a5852" font-size="9" font-weight="400">5.531</text>
<rect x="240" y="677.8" width="335.3" height="12.2" fill="#6a7a9a" opacity="0.72"/>
<text x="234" y="687.9" fill="#8e8a84" font-size="9.5" text-anchor="end" font-weight="400">French: Notre-Dame</text>
<text x="579.3" y="687.9" fill="#5a5852" font-size="9" font-weight="400">5.540</text>
<rect x="240" y="694.7" width="346.5" height="12.2" fill="#8a7a5a" opacity="0.72"/>
<text x="234" y="704.8" fill="#8e8a84" font-size="9.5" text-anchor="end" font-weight="400">Tagalog: Filibusterismo</text>
<text x="590.5" y="704.8" fill="#5a5852" font-size="9" font-weight="400">5.578</text>
<rect x="240" y="711.7" width="396.5" height="12.2" fill="#6a7a9a" opacity="0.72"/>
<text x="234" y="721.7" fill="#8e8a84" font-size="9.5" text-anchor="end" font-weight="400">German: Nietzsche</text>
<text x="640.5" y="721.7" fill="#5a5852" font-size="9" font-weight="400">5.748</text>
<rect x="240" y="728.6" width="445.3" height="12.2" fill="#8a7a5a" opacity="0.72"/>
<text x="234" y="738.6" fill="#8e8a84" font-size="9.5" text-anchor="end" font-weight="400">Tagalog: Noli Me Tangere ★</text>
<text x="689.3" y="738.6" fill="#5a5852" font-size="9" font-weight="400">5.914</text>
<rect x="240" y="745.5" width="446.5" height="12.2" fill="#c9a84c" opacity="1.0"/>
<line x1="642.9" y1="751.5" x2="725.3" y2="751.5" stroke="#f0ede6" stroke-width="2"/>
<line x1="642.9" y1="746.5" x2="642.9" y2="756.5" stroke="#f0ede6" stroke-width="1.5"/>
<line x1="725.3" y1="746.5" x2="725.3" y2="756.5" stroke="#f0ede6" stroke-width="1.5"/>
<text x="234" y="755.5" fill="#c9a84c" font-size="9.5" text-anchor="end" font-weight="600">Voynich MS (EVA Basic) ★★</text>
<text x="690.5" y="755.5" fill="#c9a84c" font-size="9" font-weight="600">5.918</text>
<text x="754" y="60" fill="#5a5852" font-size="9.5" letter-spacing="0.5">Morphology</text>
<rect x="754" y="69" width="12" height="10" fill="#5a8a6a" opacity="0.85"/>
<text x="770" y="78" fill="#8e8a84" font-size="9.5">Analytic</text>
<rect x="754" y="87" width="12" height="10" fill="#6a7a9a" opacity="0.85"/>
<text x="770" y="96" fill="#8e8a84" font-size="9.5">Fusional</text>
<rect x="754" y="105" width="12" height="10" fill="#8a7a5a" opacity="0.85"/>
<text x="770" y="114" fill="#8e8a84" font-size="9.5">Agglutinative</text>
<rect x="754" y="123" width="12" height="10" fill="#7a6a8a" opacity="0.85"/>
<text x="770" y="132" fill="#8e8a84" font-size="9.5">Isolating</text>
<rect x="754" y="141" width="12" height="10" fill="#c9a84c" opacity="0.85"/>
<text x="770" y="150" fill="#8e8a84" font-size="9.5">Voynich MS</text>
</svg>