<svg xmlns="http://www.w3.org/2000/svg" width="820" height="520" viewBox="0 0 820 520">
<rect width="820" height="520" fill="#080806"/>
<text x="80" y="28" fill="#f0ede6" font-size="14" font-family="Georgia,serif" letter-spacing="0.5">Voynich Manuscript — Word Frequency Distribution (Zipf Plot)</text>
<text x="80" y="44" fill="#5a5852" font-size="10" font-family="Helvetica Neue,Arial,sans-serif" letter-spacing="0.3">Log-log scale · n = 5,000 tokens · 2,016 unique types · EVA Basic transcription</text>
<line x1="80.0" y1="50" x2="80.0" y2="450" stroke="#1e1d1a" stroke-width="0.5" stroke-dasharray="3,3"/>
<text x="80.0" y="464" fill="#5a5852" font-size="9" text-anchor="middle" font-family="Helvetica Neue,Arial,sans-serif">1</text>
<line x1="143.8" y1="50" x2="143.8" y2="450" stroke="#1e1d1a" stroke-width="0.5" stroke-dasharray="3,3"/>
<text x="143.8" y="464" fill="#5a5852" font-size="9" text-anchor="middle" font-family="Helvetica Neue,Arial,sans-serif">2</text>
<line x1="228.1" y1="50" x2="228.1" y2="450" stroke="#1e1d1a" stroke-width="0.5" stroke-dasharray="3,3"/>
<text x="228.1" y="464" fill="#5a5852" font-size="9" text-anchor="middle" font-family="Helvetica Neue,Arial,sans-serif">5</text>
<line x1="291.8" y1="50" x2="291.8" y2="450" stroke="#1e1d1a" stroke-width="0.5" stroke-dasharray="3,3"/>
<text x="291.8" y="464" fill="#5a5852" font-size="9" text-anchor="middle" font-family="Helvetica Neue,Arial,sans-serif">10</text>
<line x1="355.6" y1="50" x2="355.6" y2="450" stroke="#1e1d1a" stroke-width="0.5" stroke-dasharray="3,3"/>
<text x="355.6" y="464" fill="#5a5852" font-size="9" text-anchor="middle" font-family="Helvetica Neue,Arial,sans-serif">20</text>
<line x1="439.9" y1="50" x2="439.9" y2="450" stroke="#1e1d1a" stroke-width="0.5" stroke-dasharray="3,3"/>
<text x="439.9" y="464" fill="#5a5852" font-size="9" text-anchor="middle" font-family="Helvetica Neue,Arial,sans-serif">50</text>
<line x1="503.7" y1="50" x2="503.7" y2="450" stroke="#1e1d1a" stroke-width="0.5" stroke-dasharray="3,3"/>
<text x="503.7" y="464" fill="#5a5852" font-size="9" text-anchor="middle" font-family="Helvetica Neue,Arial,sans-serif">100</text>
<line x1="567.4" y1="50" x2="567.4" y2="450" stroke="#1e1d1a" stroke-width="0.5" stroke-dasharray="3,3"/>
<text x="567.4" y="464" fill="#5a5852" font-size="9" text-anchor="middle" font-family="Helvetica Neue,Arial,sans-serif">200</text>
<line x1="651.7" y1="50" x2="651.7" y2="450" stroke="#1e1d1a" stroke-width="0.5" stroke-dasharray="3,3"/>
<text x="651.7" y="464" fill="#5a5852" font-size="9" text-anchor="middle" font-family="Helvetica Neue,Arial,sans-serif">500</text>
<line x1="715.5" y1="50" x2="715.5" y2="450" stroke="#1e1d1a" stroke-width="0.5" stroke-dasharray="3,3"/>
<text x="715.5" y="464" fill="#5a5852" font-size="9" text-anchor="middle" font-family="Helvetica Neue,Arial,sans-serif">1000</text>
<line x1="779.3" y1="50" x2="779.3" y2="450" stroke="#1e1d1a" stroke-width="0.5" stroke-dasharray="3,3"/>
<text x="779.3" y="464" fill="#5a5852" font-size="9" text-anchor="middle" font-family="Helvetica Neue,Arial,sans-serif">2000</text>
<line x1="80" y1="450.0" x2="780" y2="450.0" stroke="#1e1d1a" stroke-width="0.5" stroke-dasharray="3,3"/>
<text x="74" y="453.0" fill="#5a5852" font-size="9" text-anchor="end" font-family="Helvetica Neue,Arial,sans-serif">1</text>
<line x1="80" y1="399.1" x2="780" y2="399.1" stroke="#1e1d1a" stroke-width="0.5" stroke-dasharray="3,3"/>
<text x="74" y="402.1" fill="#5a5852" font-size="9" text-anchor="end" font-family="Helvetica Neue,Arial,sans-serif">2</text>
<line x1="80" y1="331.7" x2="780" y2="331.7" stroke="#1e1d1a" stroke-width="0.5" stroke-dasharray="3,3"/>
<text x="74" y="334.7" fill="#5a5852" font-size="9" text-anchor="end" font-family="Helvetica Neue,Arial,sans-serif">5</text>
<line x1="80" y1="280.8" x2="780" y2="280.8" stroke="#1e1d1a" stroke-width="0.5" stroke-dasharray="3,3"/>
<text x="74" y="283.8" fill="#5a5852" font-size="9" text-anchor="end" font-family="Helvetica Neue,Arial,sans-serif">10</text>
<line x1="80" y1="229.8" x2="780" y2="229.8" stroke="#1e1d1a" stroke-width="0.5" stroke-dasharray="3,3"/>
<text x="74" y="232.8" fill="#5a5852" font-size="9" text-anchor="end" font-family="Helvetica Neue,Arial,sans-serif">20</text>
<line x1="80" y1="162.5" x2="780" y2="162.5" stroke="#1e1d1a" stroke-width="0.5" stroke-dasharray="3,3"/>
<text x="74" y="165.5" fill="#5a5852" font-size="9" text-anchor="end" font-family="Helvetica Neue,Arial,sans-serif">50</text>
<line x1="80" y1="111.5" x2="780" y2="111.5" stroke="#1e1d1a" stroke-width="0.5" stroke-dasharray="3,3"/>
<text x="74" y="114.5" fill="#5a5852" font-size="9" text-anchor="end" font-family="Helvetica Neue,Arial,sans-serif">100</text>
<line x1="80" y1="60.6" x2="780" y2="60.6" stroke="#1e1d1a" stroke-width="0.5" stroke-dasharray="3,3"/>
<text x="74" y="63.6" fill="#5a5852" font-size="9" text-anchor="end" font-family="Helvetica Neue,Arial,sans-serif">200</text>
<line x1="80" y1="-6.8" x2="780" y2="-6.8" stroke="#1e1d1a" stroke-width="0.5" stroke-dasharray="3,3"/>
<text x="74" y="-3.8" fill="#5a5852" font-size="9" text-anchor="end" font-family="Helvetica Neue,Arial,sans-serif">500</text>
<polyline points="80.0,50.3 300.6,226.6 360.1,274.1 395.9,302.7 421.6,323.3 441.7,339.3 458.2,352.5 472.2,363.6 484.3,373.3 495.0,381.9 504.6,389.5 513.3,396.5 521.2,402.8 528.5,408.6 535.3,414.0 541.6,419.1 547.5,423.8 553.0,428.2 558.3,432.4 563.2,436.3 567.9,440.1 572.4,443.7 576.6,447.1 580.7,450.0 584.6,450.0 588.3,450.0 591.9,450.0 595.4,450.0 598.7,450.0 601.9,450.0 605.0,450.0 608.0,450.0 611.0,450.0 613.8,450.0 616.5,450.0 619.2,450.0 621.8,450.0 624.3,450.0 626.7,450.0 629.1,450.0 631.4,450.0 633.7,450.0 635.9,450.0 638.1,450.0 640.2,450.0 642.2,450.0 644.3,450.0 646.2,450.0 648.2,450.0 650.1,450.0 651.9,450.0 653.7,450.0 655.5,450.0 657.3,450.0 659.0,450.0 660.7,450.0 662.3,450.0 663.9,450.0 665.5,450.0 667.1,450.0 668.7,450.0 670.2,450.0 671.7,450.0 673.1,450.0 674.6,450.0 676.0,450.0 677.4,450.0 678.8,450.0 680.2,450.0 681.5,450.0 682.8,450.0 684.1,450.0 685.4,450.0 686.7,450.0 687.9,450.0 689.2,450.0 690.4,450.0 691.6,450.0 692.8,450.0 693.9,450.0 695.1,450.0 696.2,450.0 697.4,450.0 698.5,450.0 699.6,450.0 700.7,450.0 701.7,450.0 702.8,450.0 703.8,450.0 704.9,450.0 705.9,450.0 706.9,450.0 707.9,450.0 708.9,450.0 709.9,450.0 710.9,450.0 711.8,450.0 712.8,450.0 713.7,450.0 714.7,450.0 715.6,450.0 716.5,450.0 717.4,450.0 718.3,450.0 719.2,450.0 720.1,450.0 720.9,450.0 721.8,450.0 722.7,450.0 723.5,450.0 724.4,450.0 725.2,450.0 726.0,450.0 726.8,450.0 727.6,450.0 728.4,450.0 729.2,450.0 730.0,450.0 730.8,450.0 731.6,450.0 732.3,450.0 733.1,450.0 733.9,450.0 734.6,450.0 735.4,450.0 736.1,450.0 736.8,450.0 737.6,450.0 738.3,450.0 739.0,450.0 739.7,450.0 740.4,450.0 741.1,450.0 741.8,450.0 742.5,450.0 743.2,450.0 743.9,450.0 744.5,450.0 745.2,450.0 745.9,450.0 746.5,450.0 747.2,450.0 747.8,450.0 748.5,450.0 749.1,450.0 749.7,450.0 750.4,450.0 751.0,450.0 751.6,450.0 752.2,450.0 752.9,450.0 753.5,450.0 754.1,450.0 754.7,450.0 755.3,450.0 755.9,450.0 756.5,450.0 757.1,450.0 757.6,450.0 758.2,450.0 758.8,450.0 759.4,450.0 759.9,450.0 760.5,450.0 761.1,450.0 761.6,450.0 762.2,450.0 762.7,450.0 763.3,450.0 763.8,450.0 764.4,450.0 764.9,450.0 765.4,450.0 766.0,450.0 766.5,450.0 767.0,450.0 767.6,450.0 768.1,450.0 768.6,450.0 769.1,450.0 769.6,450.0 770.1,450.0 770.6,450.0 771.1,450.0 771.6,450.0 772.1,450.0 772.6,450.0 773.1,450.0 773.6,450.0 774.1,450.0 774.6,450.0 775.1,450.0 775.6,450.0 776.0,450.0 776.5,450.0 777.0,450.0 777.5,450.0 777.9,450.0 778.4,450.0 778.9,450.0 779.3,450.0 779.8,450.0" fill="none" stroke="#3a3a36" stroke-width="1.2" stroke-dasharray="6,4" opacity="0.8"/>
<polyline points="80.0,50.3 300.6,211.8 360.1,255.3 395.9,281.5 421.6,300.3 441.7,315.0 458.2,327.1 472.2,337.3 484.3,346.2 495.0,354.0 504.6,361.0 513.3,367.4 521.2,373.2 528.5,378.5 535.3,383.5 541.6,388.1 547.5,392.4 553.0,396.5 558.3,400.3 563.2,403.9 567.9,407.4 572.4,410.6 576.6,413.7 580.7,416.7 584.6,419.6 588.3,422.3 591.9,424.9 595.4,427.5 598.7,429.9 601.9,432.3 605.0,434.5 608.0,436.7 611.0,438.9 613.8,440.9 616.5,442.9 619.2,444.9 621.8,446.8 624.3,448.6 626.7,450.0 629.1,450.0 631.4,450.0 633.7,450.0 635.9,450.0 638.1,450.0 640.2,450.0 642.2,450.0 644.3,450.0 646.2,450.0 648.2,450.0 650.1,450.0 651.9,450.0 653.7,450.0 655.5,450.0 657.3,450.0 659.0,450.0 660.7,450.0 662.3,450.0 663.9,450.0 665.5,450.0 667.1,450.0 668.7,450.0 670.2,450.0 671.7,450.0 673.1,450.0 674.6,450.0 676.0,450.0 677.4,450.0 678.8,450.0 680.2,450.0 681.5,450.0 682.8,450.0 684.1,450.0 685.4,450.0 686.7,450.0 687.9,450.0 689.2,450.0 690.4,450.0 691.6,450.0 692.8,450.0 693.9,450.0 695.1,450.0 696.2,450.0 697.4,450.0 698.5,450.0 699.6,450.0 700.7,450.0 701.7,450.0 702.8,450.0 703.8,450.0 704.9,450.0 705.9,450.0 706.9,450.0 707.9,450.0 708.9,450.0 709.9,450.0 710.9,450.0 711.8,450.0 712.8,450.0 713.7,450.0 714.7,450.0 715.6,450.0 716.5,450.0 717.4,450.0 718.3,450.0 719.2,450.0 720.1,450.0 720.9,450.0 721.8,450.0 722.7,450.0 723.5,450.0 724.4,450.0 725.2,450.0 726.0,450.0 726.8,450.0 727.6,450.0 728.4,450.0 729.2,450.0 730.0,450.0 730.8,450.0 731.6,450.0 732.3,450.0 733.1,450.0 733.9,450.0 734.6,450.0 735.4,450.0 736.1,450.0 736.8,450.0 737.6,450.0 738.3,450.0 739.0,450.0 739.7,450.0 740.4,450.0 741.1,450.0 741.8,450.0 742.5,450.0 743.2,450.0 743.9,450.0 744.5,450.0 745.2,450.0 745.9,450.0 746.5,450.0 747.2,450.0 747.8,450.0 748.5,450.0 749.1,450.0 749.7,450.0 750.4,450.0 751.0,450.0 751.6,450.0 752.2,450.0 752.9,450.0 753.5,450.0 754.1,450.0 754.7,450.0 755.3,450.0 755.9,450.0 756.5,450.0 757.1,450.0 757.6,450.0 758.2,450.0 758.8,450.0 759.4,450.0 759.9,450.0 760.5,450.0 761.1,450.0 761.6,450.0 762.2,450.0 762.7,450.0 763.3,450.0 763.8,450.0 764.4,450.0 764.9,450.0 765.4,450.0 766.0,450.0 766.5,450.0 767.0,450.0 767.6,450.0 768.1,450.0 768.6,450.0 769.1,450.0 769.6,450.0 770.1,450.0 770.6,450.0 771.1,450.0 771.6,450.0 772.1,450.0 772.6,450.0 773.1,450.0 773.6,450.0 774.1,450.0 774.6,450.0 775.1,450.0 775.6,450.0 776.0,450.0 776.5,450.0 777.0,450.0 777.5,450.0 777.9,450.0 778.4,450.0 778.9,450.0 779.3,450.0 779.8,450.0" fill="none" stroke="rgba(201,168,76,0.25)" stroke-width="1" stroke-dasharray="4,4"/>
<polyline points="244.8,50.3 308.6,155.5 345.9,182.6 372.4,205.1 392.9,219.6 409.7,237.6 423.9,246.2 436.1,251.0 447.0,256.0 456.7,261.5 465.4,267.4 473.4,273.8 480.8,280.8 487.6,288.5 494.0,297.2 499.9,297.2 505.5,297.2 510.7,307.0 515.7,307.0 520.4,318.3 524.9,318.3 529.2,318.3 533.3,318.3 537.2,318.3 541.0,331.7 544.6,331.7 548.0,331.7 551.4,331.7 554.6,331.7 557.7,331.7 560.8,348.1 563.7,348.1 566.5,348.1 569.3,348.1 571.9,348.1 574.5,348.1 577.0,348.1 579.5,369.3 581.9,369.3 584.2,369.3 586.5,369.3 588.7,369.3 590.9,369.3 593.0,369.3 595.0,369.3 597.1,369.3 599.0,369.3 601.0,369.3 602.9,399.1 604.7,399.1 606.6,399.1 608.3,399.1 610.1,399.1 611.8,399.1 613.5,399.1 615.2,399.1 616.8,399.1 618.4,399.1 620.0,399.1 621.5,399.1 623.0,399.1 624.5,399.1 626.0,399.1 627.4,399.1 628.9,399.1 630.3,399.1 631.7,399.1 633.0,399.1 634.4,399.1 635.7,399.1 637.0,399.1 638.3,399.1 639.6,399.1 640.8,399.1 642.0,399.1 643.3,399.1 644.5,399.1 645.6,399.1 646.8,399.1 648.0,399.1 649.1,399.1 650.2,399.1 651.4,399.1 652.5,399.1 653.6,399.1 654.6,399.1 655.7,450.0 656.7,450.0 657.8,450.0 658.8,450.0 659.8,450.0 660.8,450.0 661.8,450.0 662.8,450.0 663.8,450.0 664.7,450.0 665.7,450.0 666.6,450.0 667.6,450.0 668.5,450.0 669.4,450.0 670.3,450.0 671.2,450.0 672.1,450.0 673.0,450.0 673.9,450.0 674.7,450.0 675.6,450.0 676.4,450.0 677.3,450.0 678.1,450.0 678.9,450.0 679.7,450.0 680.6,450.0 681.4,450.0 682.2,450.0 682.9,450.0 683.7,450.0 684.5,450.0 685.3,450.0 686.0,450.0 686.8,450.0 687.5,450.0 688.3,450.0 689.0,450.0 689.8,450.0 690.5,450.0 691.2,450.0 691.9,450.0 692.6,450.0 693.3,450.0 694.0,450.0 694.7,450.0 695.4,450.0 696.1,450.0 696.8,450.0 697.5,450.0 698.1,450.0 698.8,450.0 699.5,450.0 700.1,450.0 700.8,450.0 701.4,450.0 702.1,450.0 702.7,450.0 703.3,450.0 703.9,450.0 704.6,450.0 705.2,450.0 705.8,450.0 706.4,450.0 707.0,450.0 707.6,450.0 708.2,450.0 708.8,450.0 709.4,450.0 710.0,450.0 710.6,450.0 711.2,450.0 711.7,450.0 712.3,450.0 712.9,450.0 713.5,450.0 714.0,450.0 714.6,450.0 715.1,450.0 715.7,450.0 716.2,450.0 716.8,450.0 717.3,450.0 717.9,450.0 718.4,450.0 718.9,450.0 719.5,450.0 720.0,450.0 720.5,450.0 721.0,450.0 721.6,450.0 722.1,450.0 722.6,450.0 723.1,450.0 723.6,450.0 724.1,450.0 724.6,450.0 725.1,450.0 725.6,450.0 726.1,450.0 726.6,450.0 727.1,450.0 727.6,450.0 728.0,450.0 728.5,450.0 729.0,450.0 729.5,450.0 729.9,450.0 730.4,450.0 730.9,450.0 731.3,450.0 731.8,450.0 732.3,450.0 732.7,450.0 733.2,450.0 733.6,450.0 734.1,450.0 734.5,450.0 735.0,450.0 735.4,450.0 735.9,450.0 736.3,450.0 736.8,450.0 737.2,450.0 737.6,450.0 738.1,450.0 738.5,450.0 738.9,450.0 739.4,450.0 739.8,450.0 740.2,450.0 740.6,450.0 741.0,450.0 741.5,450.0 741.9,450.0 742.3,450.0 742.7,450.0 743.1,450.0 743.5,450.0 743.9,450.0 744.3,450.0 744.7,450.0 745.1,450.0 745.5,450.0 745.9,450.0 746.3,450.0 746.7,450.0 747.1,450.0 747.5,450.0 747.9,450.0 748.3,450.0 748.7,450.0 749.0,450.0 749.4,450.0 749.8,450.0 750.2,450.0 750.6,450.0 750.9,450.0 751.3,450.0 751.7,450.0 752.1,450.0 752.4,450.0 752.8,450.0 753.2,450.0 753.5,450.0 753.9,450.0 754.3,450.0 754.6,450.0 755.0,450.0 755.3,450.0 755.7,450.0 756.1,450.0 756.4,450.0 756.8,450.0 757.1,450.0 757.5,450.0 757.8,450.0 758.2,450.0 758.5,450.0 758.9,450.0 759.2,450.0 759.5,450.0 759.9,450.0 760.2,450.0 760.6,450.0 760.9,450.0 761.2,450.0 761.6,450.0 761.9,450.0 762.2,450.0 762.6,450.0 762.9,450.0 763.2,450.0 763.6,450.0 763.9,450.0 764.2,450.0 764.5,450.0 764.9,450.0 765.2,450.0 765.5,450.0 765.8,450.0 766.1,450.0 766.5,450.0 766.8,450.0 767.1,450.0 767.4,450.0 767.7,450.0 768.0,450.0 768.3,450.0 768.6,450.0 769.0,450.0 769.3,450.0 769.6,450.0 769.9,450.0 770.2,450.0 770.5,450.0 770.8,450.0 771.1,450.0 771.4,450.0 771.7,450.0 772.0,450.0 772.3,450.0 772.6,450.0 772.9,450.0 773.2,450.0 773.5,450.0 773.8,450.0 774.1,450.0 774.4,450.0 774.6,450.0 774.9,450.0 775.2,450.0 775.5,450.0 775.8,450.0 776.1,450.0 776.4,450.0 776.7,450.0 776.9,450.0 777.2,450.0 777.5,450.0 777.8,450.0 778.1,450.0 778.3,450.0 778.6,450.0 778.9,450.0 779.2,450.0 779.5,450.0 779.7,450.0 780.0,450.0" fill="none" stroke="#c9a84c" stroke-width="2" stroke-linejoin="round"/>
<circle cx="80.0" cy="50.3" r="3.5" fill="#c9a84c" opacity="0.9"/>
<text x="86.0" y="40.3" fill="#c9a84c" font-size="9" font-family="Georgia,serif" font-style="italic">daiin (230×)</text>
<circle cx="143.8" cy="91.7" r="3.5" fill="#c9a84c" opacity="0.9"/>
<text x="149.8" y="81.7" fill="#c9a84c" font-size="9" font-family="Georgia,serif" font-style="italic">chol (131×)</text>
<circle cx="181.1" cy="106.6" r="3.5" fill="#c9a84c" opacity="0.9"/>
<text x="187.1" y="96.6" fill="#c9a84c" font-size="9" font-family="Georgia,serif" font-style="italic">chor (107×)</text>
<circle cx="207.5" cy="137.7" r="3.5" fill="#c9a84c" opacity="0.9"/>
<text x="203.5" y="127.7" fill="#c9a84c" font-size="9" font-family="Georgia,serif" font-style="italic">cthy (70×)</text>
<circle cx="228.1" cy="149.1" r="3.5" fill="#c9a84c" opacity="0.9"/>
<text x="224.1" y="139.1" fill="#c9a84c" font-size="9" font-family="Georgia,serif" font-style="italic">dy (60×)</text>
<text x="430" y="512" fill="#8e8a84" font-size="10.5" text-anchor="middle" font-family="Helvetica Neue,Arial,sans-serif" letter-spacing="0.5">Rank (log scale)</text>
<text x="16" y="250" fill="#8e8a84" font-size="10.5" text-anchor="middle" font-family="Helvetica Neue,Arial,sans-serif" letter-spacing="0.5" transform="rotate(-90,16,250)">Frequency (log scale)</text>
<line x1="80" y1="50" x2="80" y2="450" stroke="#2a2a26" stroke-width="1"/>
<line x1="80" y1="450" x2="780" y2="450" stroke="#2a2a26" stroke-width="1"/>
<rect x="140" y="80" width="180" height="66" fill="#0e0e0b" stroke="#1e1d1a" stroke-width="1" rx="2"/>
<line x1="152" y1="98" x2="176" y2="98" stroke="#c9a84c" stroke-width="2"/>
<text x="182" y="102" fill="#c9a84c" font-size="9.5" font-family="Helvetica Neue,Arial,sans-serif">Voynich (n=5,000, EVA)</text>
<line x1="152" y1="116" x2="176" y2="116" stroke="#3a3a36" stroke-width="1.2" stroke-dasharray="6,4"/>
<text x="182" y="120" fill="#5a5852" font-size="9.5" font-family="Helvetica Neue,Arial,sans-serif">Zipf α=1.0 (ideal)</text>
<line x1="152" y1="134" x2="176" y2="134" stroke="rgba(201,168,76,0.3)" stroke-width="1" stroke-dasharray="4,4"/>
<text x="182" y="138" fill="#8e8a84" font-size="9.5" font-family="Helvetica Neue,Arial,sans-serif">Fitted α=0.916</text>
<text x="770" y="430" fill="#5a5852" font-size="9" text-anchor="end" font-family="Helvetica Neue,Arial,sans-serif">Zipf α = 0.916  ·  R² = 0.930  ·  consistent with natural language</text>
</svg>